<!-- <svg width="22" height="22" fill="#000000" viewBox="0 0 24 24" xmlns="http://www.w3.org/2000/svg">
  <path d="M18 4v3a2 2 0 0 1-2 2H8a2 2 0 0 1-2-2V4a3 3 0 0 0-3 3v12a3 3 0 0 0 3 3h12a3 3 0 0 0 3-3V7a3 3 0 0 0-3-3Z"></path>
  <path d="M16 2H8a1 1 0 0 0-1 1v4a1 1 0 0 0 1 1h8a1 1 0 0 0 1-1V3a1 1 0 0 0-1-1Z"></path>
</svg> -->
<!-- 2 -->
<!-- <svg width="25" height="25" fill="none" stroke="#0a0a0a" stroke-linecap="round" stroke-linejoin="round" stroke-width="2" viewBox="0 0 24 24" xmlns="http://www.w3.org/2000/svg">
  <path d="M16 4h2a2 2 0 0 1 2 2v14a2 2 0 0 1-2 2H6a2 2 0 0 1-2-2V6a2 2 0 0 1 2-2h2"></path>
  <rect width="8" height="4" x="8" y="2" rx="1" ry="1"></rect>
</svg> -->
<!-- <svg width="25" height="25" fill="none" stroke="#0a0a0a" stroke-linecap="round" stroke-linejoin="round" stroke-width="2" viewBox="0 0 24 24" xmlns="http://www.w3.org/2000/svg">
  <path d="M9 5H7a2 2 0 0 0-2 2v12a2 2 0 0 0 2 2h10a2 2 0 0 0 2-2V7a2 2 0 0 0-2-2h-2"></path>
  <path d="M9.586 6.414A2 2 0 0 1 11 3h2a2 2 0 0 1 0 4h-2a2 2 0 0 1-1.414-.586Z"></path>
</svg> -->
<!-- <svg 


class="svg-icon" style="width: 1em; height: 1em;vertical-align: middle;fill: currentColor;overflow: hidden;" viewBox="0 0 1024 1024" version="1.1" xmlns="http://www.w3.org/2000/svg">
<path d="M597.333333 170.666667H426.666667c0-23.330133 8.2432-43.52 24.746666-60.586667C468.48 93.576533 488.669867 85.333333 512 85.333333s43.229867 8.2432 59.733333 24.746667c17.066667 17.066667 25.6 37.256533 25.6 60.586667z"  />
<path d="M768 955.733333H256c-66.030933 0-102.4-36.369067-102.4-102.4V170.666667a17.066667 17.066667 0 0 1 17.066667-17.066667h240.247466c3.293867-20.804267 12.7488-39.3728 28.228267-55.381333C459.8272 78.216533 484.1984 68.266667 512 
68.266667c27.921067 0 52.0704 10.001067 71.799467 29.7472 16.042667 16.042667 25.856 34.696533 29.252266 55.586133H853.333333a17.066667 17.066667 0 0 1 17.066667 17.066667v682.666666c0 66.030933-36.369067 102.4-102.4 102.4zM187.733333 
187.733333v665.6c0 47.223467 21.0432 68.266667 68.266667 68.266667h512c47.223467 0 68.266667-21.0432 68.266667-68.266667V187.733333H187.733333z m257.962667-34.133333h132.522667c-2.952533-11.605333-9.096533-21.998933-18.551467-31.453867C546.389333
 108.8512 530.7904 102.4 512 102.4c-18.8928 0-34.850133 6.519467-48.708267 19.950933-8.9088 9.216-14.779733 19.575467-17.595733 31.249067zM426.666667 785.066667h-85.333334a17.066667 17.066667 0 0 1-17.066666-17.066667v-85.333333a17.066667 17.066667 
 0 0 1 17.066666-17.066667h85.333334a17.066667 17.066667 0 0 1 17.066666 17.066667v85.333333a17.066667 17.066667 0 0 1-17.066666 17.066667z m-68.266667-34.133334h51.2v-51.2h-51.2v51.2z m324.266667 0h-169.813334a17.066667 17.066667 0 1 1 0-34.133333H682.666667a17.066667 17.066667 
 0 1 1 0 34.133333z m-256-136.533333h-85.333334a17.066667 17.066667 0 0 1-17.066666-17.066667v-85.333333a17.066667 17.066667 0 0 1 17.066666-17.066667h85.333334a17.066667 17.066667 0 0 1 17.066666 17.066667v85.333333a17.066667 17.066667 0 0 1-17.066666 17.066667z m-68.266667-34.133333h51.2v-51.2h-51.2v51.2z 
 m324.266667 0h-169.813334a17.066667 17.066667 0 1 1 0-34.133334H682.666667a17.066667 17.066667 0 1 1 0 34.133334z m-256-136.533334h-85.333334a17.066667 17.066667 0 0 1-17.066666-17.066666v-85.333334a17.066667 17.066667 0 0 1 17.066666-17.066666h85.333334a17.066667 17.066667 0 0 1 17.066666 17.066666v85.333334a17.066667 
 17.066667 0 0 1-17.066666 17.066666z m-68.266667-34.133333h51.2v-51.2h-51.2v51.2z m324.266667 0h-169.813334a17.066667 17.066667 0 0 1 0-34.133333H682.666667a17.066667 17.066667 0 1 1 0 34.133333z m0-136.533333H341.333333a17.066667 17.066667 0 0 1 0-34.133334h341.333334a17.066667 17.066667 0 1 1 0 34.133334z"  /></svg> -->

<svg class="svg-icon" style="width: 1em; height: 1em;vertical-align: middle;fill: currentColor;overflow: hidden;" viewBox="0 0 1024 1024" version="1.1" xmlns="http://www.w3.org/2000/svg">
<path d="M800 128h-160c0-70.6-57.4-128-128-128s-128 57.4-128 128H224C171 128 128 171 128 224v704c0 53 43 96 96 96h576c53 0 96-43 96-96V224c0-53-43-96-96-96zM320 848c-26.6 0-48-21.4-48-48s21.4-48 48-48 48 21.4 48 48-21.4 48-48 48z 
m0-192c-26.6 0-48-21.4-48-48s21.4-48 48-48 48 21.4 48 48-21.4 48-48 48z m0-192c-26.6 0-48-21.4-48-48s21.4-48 48-48 48 21.4 48 48-21.4 48-48 48z m192-384c26.6 0 48 21.4 48 48s-21.4 48-48 48-48-21.4-48-48 21.4-48 48-48z m256 736c0 8.8-7.2 16-16 
16H464c-8.8 0-16-7.2-16-16v-32c0-8.8 7.2-16 16-16h288c8.8 0 16 7.2 16 16v32z m0-192c0 8.8-7.2 16-16 16H464c-8.8 0-16-7.2-16-16v-32c0-8.8 7.2-16 16-16h288c8.8 0 16 7.2 16 16v32z m0-192c0 8.8-7.2 16-16 16H464c-8.8 0-16-7.2-16-16v-32c0-8.8 7.2-16 16-16h288c8.8 0 16 7.2 16 16v32z"  /></svg>