<svg width="22" height="22" fill="#f2eeee" viewBox="0 0 24 24" xmlns="http://www.w3.org/2000/svg">
  <path d="M12.261 4.745a.375.375 0 0 0-.518 0l-8.63 8.244a.374.374 0 0 0-.115.271l-.002 7.737a1.5 1.5 0 0 0 1.5 1.5h4.505a.75.75 0 0 0 .75-.75v-6.375a.375.375 0 0 1 .375-.375h3.75a.375.375 0 0 1 .375.375v6.375a.75.75 0 0 0 .75.75h4.503a1.5 1.5 0 0 0 1.5-1.5V13.26a.374.374 0 0 0-.116-.271L12.26 4.745Z"></path>
  <path d="M23.011 11.444 19.505 8.09V3a.75.75 0 0 0-.75-.75h-2.25a.75.75 0 0 0-.75.75v1.5L13.04 1.904c-.254-.257-.632-.404-1.04-.404-.407 0-.784.147-1.038.405l-9.97 9.539a.765.765 0 0 0-.063 1.048.749.749 0 0 0 1.087.05l9.726-9.294a.375.375 0 0 1 .519 0l9.727 9.294a.75.75 0 0 0 1.059-.02c.288-.299.264-.791-.036-1.078Z"></path>
</svg>