<svg width="22" height="22" fill="#fcf8f8" viewBox="0 0 24 24" xmlns="http://www.w3.org/2000/svg">
  <path d="M2 12a10 10 0 1 1 20 0 10 10 0 0 1-20 0Zm9.375-8.654c-.838.255-1.669 1.025-2.359 2.319-.178.335-.345.7-.493 1.09.88.196 1.84.321 2.852.359V3.346ZM7.311 6.424c.178-.48.38-.93.601-1.348.217-.408.466-.799.747-1.166a8.763 8.763 0 0 0-2.845 1.902c.452.23.954.437 1.497.613v-.001Zm-.925 4.951a16.69 16.69 0 0 1 .545-3.76 11.405 11.405 0 0 1-1.956-.834 8.705 8.705 0 0 0-1.702 4.594h3.113Zm1.75-3.426a15.43 15.43 0 0 0-.5 3.426h3.739V8.364a16.885 16.885 0 0 1-3.239-.415Zm4.489.414v3.012h3.738a15.429 15.429 0 0 0-.5-3.426c-1.01.233-2.1.376-3.238.415v-.002Zm-4.987 4.262a15.32 15.32 0 0 0 .498 3.426 17.01 17.01 0 0 1 3.239-.413v-3.013H7.638Zm4.987 0v3.011a16.88 16.88 0 0 1 3.239.415c.278-1.033.455-2.192.5-3.426h-3.739Zm-4.102 4.62c.15.39.315.755.493 1.09.69 1.294 1.523 2.063 2.359 2.319v-3.767a15.869 15.869 0 0 0-2.852.36v-.002Zm.137 2.845a8.365 8.365 0 0 1-.748-1.166c-.23-.436-.43-.886-.6-1.349-.515.165-1.016.37-1.498.613a8.763 8.763 0 0 0 2.845 1.902h.001Zm-1.729-3.705a16.7 16.7 0 0 1-.546-3.76H3.273a8.704 8.704 0 0 0 1.702 4.594 11.358 11.358 0 0 1 1.956-.834Zm8.41 3.705a8.761 8.761 0 0 0 2.844-1.901 10.453 10.453 0 0 0-1.496-.613c-.17.462-.371.912-.602 1.348a8.361 8.361 0 0 1-.746 1.166Zm-2.716-3.204v3.768c.838-.255 1.669-1.025 2.359-2.319.178-.335.345-.7.493-1.09a15.788 15.788 0 0 0-2.852-.358Zm4.444-.501c.712.231 1.369.511 1.956.834a8.705 8.705 0 0 0 1.703-4.594h-3.113a16.705 16.705 0 0 1-.546 3.76Zm3.659-5.01a8.704 8.704 0 0 0-1.703-4.594c-.587.323-1.244.603-1.956.834.31 1.15.5 2.422.546 3.76h3.113Zm-4.64-6.299c.22.418.423.868.602 1.348a10.46 10.46 0 0 0 1.495-.613 8.762 8.762 0 0 0-2.844-1.9c.273.354.523.746.746 1.165Zm-.61 1.679a9.712 9.712 0 0 0-.494-1.09c-.69-1.294-1.521-2.063-2.359-2.319v3.766a15.865 15.865 0 0 0 2.852-.358v.001Z"></path>
</svg>