<svg width="22" height="22" fill="#050505" viewBox="0 0 24 24" xmlns="http://www.w3.org/2000/svg">
  <path fill-rule="evenodd" d="M10.08 17.4a.6.6 0 0 0 .6.6h9.6a.6.6 0 0 0 .6-.6V6.6a.6.6 0 0 0-.6-.6h-9.6a.6.6 0 0 0-.6.6V9a.6.6 0 1 1-1.2 0V6.6a1.8 1.8 0 0 1 1.8-1.8h9.6a1.8 1.8 0 0 1 1.8 1.8v10.8a1.8 1.8 0 0 1-1.8 1.8h-9.6a1.8 1.8 0 0 1-1.8-1.8V15a.6.6 0 1 1 1.2 0v2.4Z" clip-rule="evenodd"></path>
  <path fill-rule="evenodd" d="M3.054 12.424a.6.6 0 0 1 0-.85l3.6-3.6a.6.6 0 1 1 .85.85L4.927 11.4H15.48a.6.6 0 1 1 0 1.2H4.927l2.577 2.575a.6.6 0 1 1-.85.85l-3.6-3.6Z" clip-rule="evenodd"></path>
</svg>